#!OML:ASF E:\acrobat2\Project_11_07_03\Capture day 1\Session 1\Acrobat.ASF
:FULLY-SPECIFIED
:DEGREES
760
root 11.2982 21.7022 27.5297 361.652 -2.55 -0.544649
lowerback -6.43738 0.459585 2.07594
upperback -4.5293 0.502038 -1.98625
thorax -1.02815 0.177585 -3.18574
lowerneck 3.0617 -2.92337 -1.90835
upperneck 1.5064 -3.97702 3.29867
head 0.0623144 -2.00883 1.36257
rclavicle -3.18055e-015 2.78299e-015
rhumerus 75.1383 -30.8358 -48.7111
rradius 36.7204
rwrist 5.70576
rhand -27.7355 -21.8993
rfingers 7.12502
rthumb -1.13045 -51.8761
lclavicle -3.18055e-015 2.78299e-015
lhumerus 81.3034 28.2746 33.0013
lradius 30.0766
lwrist 6.35132
lhand -40.9928 -13.068
lfingers 7.12502
lthumb -13.9246 16.4457
rfemur 6.41894 12.7009 16.2594
rtibia -2.5307
rfoot -28.0593 -20.9784
rtoes 10.9975
lfemur 4.35753 -1.11521 -14.257
ltibia -0.497202
lfoot -16.7814 1.0849
ltoes -7.99031
761
root 11.2974 21.6722 27.5731 361.546 -2.59823 -0.493341
lowerback -6.63356 0.48389 2.07394
upperback -4.55026 0.531596 -2.01234
thorax -0.938982 0.193064 -3.20902
lowerneck 3.14664 -2.90611 -1.80877
upperneck 1.23142 -3.94474 3.21169
head -0.0409397 -1.99387 1.32259
rclavicle -8.05078e-015 -1.59028e-015
rhumerus 74.9961 -30.654 -48.6908
rradius 36.4298
rwrist 6.40568
rhand -27.9365 -21.4378
rfingers 7.12502
rthumb -1.3246 -51.4134
lclavicle -8.05078e-015 -1.59028e-015
lhumerus 81.0332 28.2014 32.4379
lradius 30.2234
lwrist 7.47494
lhand -41.1039 -13.8556
lfingers 7.12502
lthumb -14.0318 15.6508
rfemur 6.81119 12.7789 16.2958
rtibia -2.71003
rfoot -28.0361 -21.023
rtoes 10.891
lfemur 4.70011 -1.13025 -14.3538
ltibia -0.603948
lfoot -16.928 1.10586
ltoes -8.44593
762
root 11.296 21.6465 27.6164 361.467 -2.67386 -0.437545
lowerback -6.85059 0.514828 2.0581
upperback -4.58265 0.570367 -2.039
thorax -0.849593 0.213281 -3.22434
lowerneck 3.05978 -2.86248 -1.74886
upperneck 1.12901 -3.88119 3.19244
head -0.0611848 -1.96152 1.30542
rclavicle 8.74653e-015 -3.18055e-015
rhumerus 74.8846 -30.4769 -48.7408
rradius 36.0939
rwrist 7.22312
rhand -28.0933 -21.1143
rfingers 7.12502
rthumb -1.47606 -51.0889
lclavicle 8.74653e-015 -3.18055e-015
lhumerus 80.918 28.096 32.1181
lradius 30.3114
lwrist 8.47828
lhand -40.4545 -13.7537
lfingers 7.12502
lthumb -13.4059 15.795
rfemur 7.16578 12.8501 16.3126
rtibia -2.89702
rfoot -27.9421 -21.0615
rtoes 10.7408
lfemur 5.02142 -1.13825 -14.4469
ltibia -0.72114
lfoot -16.9612 1.11692
ltoes -8.25917
763
root 11.2932 21.6251 27.6587 361.411 -2.77367 -0.375163
lowerback -7.07098 0.548535 2.01556
upperback -4.63066 0.614204 -2.06116
thorax -0.774446 0.236219 -3.21949
lowerneck 2.98362 -2.85469 -1.68124
upperneck 1.01705 -3.86513 3.1238
head -0.0859144 -1.95286 1.27203
rclavicle 1.28216e-014 -1.90833e-014
rhumerus 74.8069 -30.3027 -48.8834
rradius 35.7247
rwrist 8.16277
rhand -28.2276 -20.9142
rfingers 7.12502
rthumb -1.6057 -50.8879
lclavicle 1.28216e-014 -1.90833e-014
lhumerus 80.8797 27.9833 31.917
lradius 30.3032
lwrist 9.22808
lhand -39.3046 -12.8912
lfingers 7.12502
lthumb -12.2974 16.7272
rfemur 7.48012 12.9584 16.3178
rtibia -3.08609
rfoot -27.7792 -21.1245
rtoes 10.5462
lfemur 5.31652 -1.14917 -14.5355
ltibia -0.846007
lfoot -16.8844 1.1255
ltoes -7.41096
764
root 11.2892 21.608 27.6999 361.38 -2.89372 -0.295898
lowerback -7.29242 0.585031 1.93474
upperback -4.69435 0.663982 -2.08104
thorax -0.714984 0.262504 -3.19013
lowerneck 2.86658 -2.85465 -1.66383
upperneck 0.991222 -3.86277 3.08341
head -0.0755538 -1.95063 1.25446
rclavicle -9.93923e-015 2.54444e-014
rhumerus 74.7739 -30.1356 -49.113
rradius 35.3098
rwrist 9.23035
rhand -28.3811 -20.843
rfingers 7.12502
rthumb -1.75397 -50.8156
lclavicle -9.93923e-015 2.54444e-014
lhumerus 81.0425 27.7518 32.149
lradius 30.1194
lwrist 9.29268
lhand -37.7278 -11.3735
lfingers 7.12502
lthumb -10.7767 18.3301
rfemur 7.75358 13.1135 16.3029
rtibia -3.28052
rfoot -27.5628 -21.2286
rtoes 10.3566
lfemur 5.5828 -1.17138 -14.6358
ltibia -0.976354
lfoot -16.7635 1.15139
ltoes -6.2568
765
root 11.2842 21.5955 27.7396 361.379 -3.02615 -0.210265
lowerback -7.52658 0.622582 1.83042
upperback -4.76751 0.716672 -2.09875
thorax -0.658572 0.290576 -3.14478
lowerneck 2.71857 -2.86448 -1.69243
upperneck 1.03571 -3.87634 3.07477
head -0.0366077 -1.95611 1.25344
rclavicle 5.76476e-015 -2.3059e-014
rhumerus 74.7984 -29.993 -49.4684
rradius 34.8627
rwrist 10.4043
rhand -28.5202 -20.7643
rfingers 7.12502
rthumb -1.88837 -50.7357
lclavicle 5.76476e-015 -2.3059e-014
lhumerus 81.2376 27.4893 32.4703
lradius 29.8112
lwrist 8.97236
lhand -36.5112 -10.3019
lfingers 7.12502
lthumb -9.60302 19.4592
rfemur 7.97499 13.2994 16.2786
rtibia -3.47659
rfoot -27.275 -21.4037
rtoes 10.0303
lfemur 5.80309 -1.20449 -14.7369
ltibia -1.09465
lfoot -16.6372 1.19373
ltoes -4.94446
766
root 11.2786 21.5878 27.778 361.396 -3.16681 -0.132249
lowerback -7.76154 0.662139 1.72704
upperback -4.84166 0.77239 -2.11444
thorax -0.602883 0.32013 -3.09738
lowerneck 2.51742 -2.87164 -1.75253
upperneck 1.15873 -3.88844 3.10052
head 0.0364901 -1.96032 1.26681
rclavicle 1.17283e-014 -2.62396e-014
rhumerus 74.8798 -29.8843 -49.948
rradius 34.3882
rwrist 11.6552
rhand -28.6377 -20.6646
rfingers 7.12502
rthumb -2.00183 -50.6349
lclavicle 1.17283e-014 -2.62396e-014
lhumerus 81.3073 27.2578 32.5774
lradius 29.4171
lwrist 8.49493
lhand -35.7883 -9.7571
lfingers 7.12502
lthumb -8.90549 20.035
rfemur 8.15624 13.478 16.2573
rtibia -3.66396
rfoot -26.8952 -21.64
rtoes 9.36362
lfemur 5.98999 -1.24595 -14.8264
ltibia -1.19275
lfoot -16.6 1.27347
ltoes -4.14339
767
root 11.273 21.5848 27.8154 361.417 -3.31333 -0.0809182
lowerback -7.98571 0.70588 1.65493
upperback -4.91303 0.832194 -2.12586
thorax -0.550052 0.351116 -3.06271
lowerneck 2.24025 -2.86151 -1.83022
upperneck 1.38257 -3.87941 3.16759
head 0.153834 -1.95302 1.29395
rclavicle 1.2921e-015 0
rhumerus 75.0179 -29.8093 -50.5323
rradius 33.8869
rwrist 12.9207
rhand -28.6831 -20.546
rfingers 7.12502
rthumb -2.04569 -50.516
lclavicle 1.2921e-015 0
lhumerus 81.35 27.0507 32.6062
lradius 29.0103
lwrist 8.08563
lhand -35.1112 -9.32265
lfingers 7.12502
lthumb -8.25205 20.4962
rfemur 8.31027 13.6128 16.2548
rtibia -3.83402
rfoot -26.4715 -21.8619
rtoes 8.56675
lfemur 6.16362 -1.29728 -14.8881
ltibia -1.28072
lfoot -16.6646 1.40202
ltoes -4.0321
768
root 11.268 21.5863 27.8516 361.446 -3.45449 -0.0770976
lowerback -8.19584 0.750283 1.63849
upperback -4.9847 0.889539 -2.12684
thorax -0.505191 0.379737 -3.04869
lowerneck 1.90216 -2.82626 -1.89864
upperneck 1.69185 -3.83806 3.25777
head 0.307196 -1.92849 1.32551
rclavicle 7.65321e-015 -2.62396e-014
rhumerus 75.2058 -29.7601 -51.2009
rradius 33.3696
rwrist 14.1371
rhand -28.6394 -20.3753
rfingers 7.12502
rthumb -2.00345 -50.3456
lclavicle 7.65321e-015 -2.62396e-014
lhumerus 81.3779 26.8674 32.5764
lradius 28.5959
lwrist 7.72855
lhand -34.4556 -8.96406
lfingers 7.12502
lthumb -7.61937 20.8787
rfemur 8.43748 13.7069 16.2943
rtibia -3.98209
rfoot -26.1331 -21.9893
rtoes 8.23829
lfemur 6.31544 -1.34368 -14.8954
ltibia -1.35078
lfoot -16.7202 1.53223
ltoes -3.92728
769
root 11.2638 21.5921 27.8863 361.476 -3.58156 -0.115202
lowerback -8.37928 0.794579 1.67442
upperback -5.06037 0.943372 -2.12071
thorax -0.479015 0.405317 -3.05721
lowerneck 1.54987 -2.77127 -1.93158
upperneck 2.03203 -3.7705 3.34215
head 0.471295 -1.89009 1.34966
rclavicle 6.16232e-015 -2.22639e-014
rhumerus 75.4238 -29.73 -51.9123
rradius 32.839
rwrist 15.2437
rhand -28.5214 -20.2032
rfingers 7.12502
rthumb -1.88949 -50.1746
lclavicle 6.16232e-015 -2.22639e-014
lhumerus 81.4798 26.6688 32.644
lradius 28.1545
lwrist 7.29371
lhand -33.7816 -8.6578
lfingers 7.12502
lthumb -6.96874 21.2075
rfemur 8.544 13.7606 16.3684
rtibia -4.09862
rfoot -25.8188 -22.0542
rtoes 8.06326
lfemur 6.44557 -1.38269 -14.8558
ltibia -1.39359
lfoot -16.7527 1.65096
ltoes -3.82612
